<mxfile host="app.diagrams.net" agent="Mozilla/5.0 (Windows NT 10.0; Win64; x64) AppleWebKit/537.36 (KHTML, like Gecko) Chrome/140.0.0.0 Safari/537.36" version="28.2.5">
  <diagram name="Vista Física - Despliegue" id="deployment-diagram">
    <mxGraphModel dx="1895" dy="973" grid="1" gridSize="10" guides="1" tooltips="1" connect="1" arrows="1" fold="1" page="1" pageScale="1" pageWidth="827" pageHeight="1169" math="0" shadow="0">
      <root>
        <mxCell id="0" />
        <mxCell id="1" parent="0" />
        <mxCell id="MmMFV5npG8T5-9VpGLUH-14" value="+ PC Usuarios Clean and Garden" style="verticalAlign=top;align=left;spacingTop=8;spacingLeft=2;spacingRight=12;shape=cube;size=10;direction=south;fontStyle=4;html=1;whiteSpace=wrap;fillColor=#f5f5f5;fontColor=#333333;strokeColor=#666666;" parent="1" vertex="1">
          <mxGeometry x="17.5" y="380" width="270" height="130" as="geometry" />
        </mxCell>
        <mxCell id="MmMFV5npG8T5-9VpGLUH-17" value="&lt;p style=&quot;margin:0px;margin-top:6px;text-align:center;&quot;&gt;Navegador&amp;nbsp; (Next.js + React) : APP&lt;/p&gt;&lt;hr size=&quot;1&quot; style=&quot;border-style:solid;&quot;&gt;&lt;p style=&quot;margin:0px;margin-left:8px;&quot;&gt;&lt;br&gt;&lt;/p&gt;" style="align=left;overflow=fill;html=1;dropTarget=0;whiteSpace=wrap;fillColor=#d5e8d4;strokeColor=#82b366;" parent="1" vertex="1">
          <mxGeometry x="25" y="420" width="240" height="80" as="geometry" />
        </mxCell>
        <mxCell id="MmMFV5npG8T5-9VpGLUH-18" value="" style="shape=component;jettyWidth=8;jettyHeight=4;" parent="MmMFV5npG8T5-9VpGLUH-17" vertex="1">
          <mxGeometry x="1" width="20" height="20" relative="1" as="geometry">
            <mxPoint x="-24" y="4" as="offset" />
          </mxGeometry>
        </mxCell>
        <mxCell id="MmMFV5npG8T5-9VpGLUH-20" value="+ +Dispositivo Móvil usuarios Clean and Garden" style="verticalAlign=top;align=left;spacingTop=8;spacingLeft=2;spacingRight=12;shape=cube;size=10;direction=south;fontStyle=4;html=1;whiteSpace=wrap;fillColor=#f5f5f5;strokeColor=#666666;fontColor=#333333;" parent="1" vertex="1">
          <mxGeometry x="10" y="535" width="285" height="130" as="geometry" />
        </mxCell>
        <mxCell id="MmMFV5npG8T5-9VpGLUH-21" value="&lt;p style=&quot;margin:0px;margin-top:6px;text-align:center;&quot;&gt;Aplicación React Native/Expo : APP&lt;/p&gt;&lt;hr size=&quot;1&quot; style=&quot;border-style:solid;&quot;&gt;&lt;p style=&quot;margin:0px;margin-left:8px;&quot;&gt;&lt;br&gt;&lt;/p&gt;" style="align=left;overflow=fill;html=1;dropTarget=0;whiteSpace=wrap;fillColor=#d5e8d4;strokeColor=#82b366;" parent="1" vertex="1">
          <mxGeometry x="20" y="575" width="250" height="80" as="geometry" />
        </mxCell>
        <mxCell id="MmMFV5npG8T5-9VpGLUH-22" value="" style="shape=component;jettyWidth=8;jettyHeight=4;" parent="MmMFV5npG8T5-9VpGLUH-21" vertex="1">
          <mxGeometry x="1" width="20" height="20" relative="1" as="geometry">
            <mxPoint x="-24" y="4" as="offset" />
          </mxGeometry>
        </mxCell>
        <mxCell id="MmMFV5npG8T5-9VpGLUH-23" value="&lt;div style=&quot;&quot;&gt;&lt;span style=&quot;background-color: transparent;&quot;&gt;+ Servidor Clean and Garden&lt;/span&gt;&lt;/div&gt;" style="verticalAlign=top;align=center;spacingTop=8;spacingLeft=2;spacingRight=12;shape=cube;size=10;direction=south;fontStyle=4;html=1;whiteSpace=wrap;fillColor=#f5f5f5;fontColor=#333333;strokeColor=#666666;" parent="1" vertex="1">
          <mxGeometry x="380" y="390" width="380" height="320" as="geometry" />
        </mxCell>
        <mxCell id="MmMFV5npG8T5-9VpGLUH-25" value="&lt;p style=&quot;margin:0px;margin-top:6px;text-align:center;&quot;&gt;API Backend (Node.js + Express + Prisma ORM) : APP&lt;/p&gt;&lt;hr size=&quot;1&quot; style=&quot;border-style:solid;&quot;&gt;&lt;p style=&quot;margin:0px;margin-left:8px;&quot;&gt;&lt;br&gt;&lt;/p&gt;" style="align=left;overflow=fill;html=1;dropTarget=0;whiteSpace=wrap;fillColor=#d5e8d4;strokeColor=#82b366;" parent="1" vertex="1">
          <mxGeometry x="390" y="430" width="350" height="250" as="geometry" />
        </mxCell>
        <mxCell id="MmMFV5npG8T5-9VpGLUH-26" value="" style="shape=component;jettyWidth=8;jettyHeight=4;" parent="MmMFV5npG8T5-9VpGLUH-25" vertex="1">
          <mxGeometry x="1" width="20" height="20" relative="1" as="geometry">
            <mxPoint x="-24" y="4" as="offset" />
          </mxGeometry>
        </mxCell>
        <mxCell id="MmMFV5npG8T5-9VpGLUH-28" value="&lt;p style=&quot;margin:0px;margin-top:6px;text-align:center;&quot;&gt;API Servicio pago: APP&lt;/p&gt;&lt;hr size=&quot;1&quot; style=&quot;border-style:solid;&quot;&gt;&lt;p style=&quot;margin:0px;margin-left:8px;&quot;&gt;&lt;br&gt;&lt;/p&gt;" style="align=left;overflow=fill;html=1;dropTarget=0;whiteSpace=wrap;" parent="1" vertex="1">
          <mxGeometry x="410" y="470" width="310" height="50" as="geometry" />
        </mxCell>
        <mxCell id="MmMFV5npG8T5-9VpGLUH-29" value="" style="shape=component;jettyWidth=8;jettyHeight=4;" parent="MmMFV5npG8T5-9VpGLUH-28" vertex="1">
          <mxGeometry x="1" width="20" height="20" relative="1" as="geometry">
            <mxPoint x="-24" y="4" as="offset" />
          </mxGeometry>
        </mxCell>
        <mxCell id="MmMFV5npG8T5-9VpGLUH-30" value="&lt;p style=&quot;margin:0px;margin-top:6px;text-align:center;&quot;&gt;API Servicio Gmail: APP&lt;/p&gt;&lt;hr size=&quot;1&quot; style=&quot;border-style:solid;&quot;&gt;&lt;p style=&quot;margin:0px;margin-left:8px;&quot;&gt;&lt;br&gt;&lt;/p&gt;" style="align=left;overflow=fill;html=1;dropTarget=0;whiteSpace=wrap;" parent="1" vertex="1">
          <mxGeometry x="410" y="540" width="310" height="50" as="geometry" />
        </mxCell>
        <mxCell id="MmMFV5npG8T5-9VpGLUH-31" value="" style="shape=component;jettyWidth=8;jettyHeight=4;" parent="MmMFV5npG8T5-9VpGLUH-30" vertex="1">
          <mxGeometry x="1" width="20" height="20" relative="1" as="geometry">
            <mxPoint x="-24" y="4" as="offset" />
          </mxGeometry>
        </mxCell>
        <mxCell id="MmMFV5npG8T5-9VpGLUH-32" value="&lt;p style=&quot;margin:0px;margin-top:6px;text-align:center;&quot;&gt;API Servicio&amp;nbsp; Notificaciones Push: APP&lt;/p&gt;&lt;hr size=&quot;1&quot; style=&quot;border-style:solid;&quot;&gt;&lt;p style=&quot;margin:0px;margin-left:8px;&quot;&gt;&lt;br&gt;&lt;/p&gt;" style="align=left;overflow=fill;html=1;dropTarget=0;whiteSpace=wrap;" parent="1" vertex="1">
          <mxGeometry x="410" y="610" width="310" height="50" as="geometry" />
        </mxCell>
        <mxCell id="MmMFV5npG8T5-9VpGLUH-33" value="" style="shape=component;jettyWidth=8;jettyHeight=4;" parent="MmMFV5npG8T5-9VpGLUH-32" vertex="1">
          <mxGeometry x="1" width="20" height="20" relative="1" as="geometry">
            <mxPoint x="-24" y="4" as="offset" />
          </mxGeometry>
        </mxCell>
        <mxCell id="MmMFV5npG8T5-9VpGLUH-34" value="+&amp;nbsp; Base de Datos" style="verticalAlign=top;align=center;spacingTop=8;spacingLeft=2;spacingRight=12;shape=cube;size=10;direction=south;fontStyle=4;html=1;whiteSpace=wrap;fillColor=#f5f5f5;fontColor=#333333;strokeColor=#666666;" parent="1" vertex="1">
          <mxGeometry x="470" y="900" width="250" height="120" as="geometry" />
        </mxCell>
        <mxCell id="MmMFV5npG8T5-9VpGLUH-35" value="&lt;p style=&quot;margin:0px;margin-top:6px;text-align:center;&quot;&gt;&lt;span style=&quot;background-color: transparent; color: light-dark(rgb(0, 0, 0), rgb(255, 255, 255)); text-align: left;&quot;&gt;Motor Base de Datos Supabase (PostgreSQL) : APP&lt;/span&gt;&amp;nbsp;&lt;/p&gt;&lt;hr size=&quot;1&quot; style=&quot;border-style:solid;&quot;&gt;&lt;p style=&quot;margin:0px;margin-left:8px;&quot;&gt;&lt;br&gt;&lt;/p&gt;" style="align=left;overflow=fill;html=1;dropTarget=0;whiteSpace=wrap;fillColor=#d5e8d4;strokeColor=#82b366;" parent="1" vertex="1">
          <mxGeometry x="485" y="940" width="220" height="65" as="geometry" />
        </mxCell>
        <mxCell id="MmMFV5npG8T5-9VpGLUH-36" value="" style="shape=component;jettyWidth=8;jettyHeight=4;" parent="MmMFV5npG8T5-9VpGLUH-35" vertex="1">
          <mxGeometry x="1" width="20" height="20" relative="1" as="geometry">
            <mxPoint x="-24" y="4" as="offset" />
          </mxGeometry>
        </mxCell>
        <mxCell id="MmMFV5npG8T5-9VpGLUH-57" value="Use" style="endArrow=open;endSize=12;dashed=1;html=1;rounded=0;exitX=1;exitY=0.75;exitDx=0;exitDy=0;entryX=0.26;entryY=0.996;entryDx=0;entryDy=0;entryPerimeter=0;" parent="1" source="MmMFV5npG8T5-9VpGLUH-17" target="MmMFV5npG8T5-9VpGLUH-23" edge="1">
          <mxGeometry width="160" relative="1" as="geometry">
            <mxPoint x="230" y="570" as="sourcePoint" />
            <mxPoint x="690" y="380" as="targetPoint" />
          </mxGeometry>
        </mxCell>
        <mxCell id="MmMFV5npG8T5-9VpGLUH-58" value="Use" style="endArrow=open;endSize=12;dashed=1;html=1;rounded=0;exitX=1;exitY=0.75;exitDx=0;exitDy=0;entryX=0.783;entryY=1;entryDx=0;entryDy=0;entryPerimeter=0;" parent="1" source="MmMFV5npG8T5-9VpGLUH-21" target="MmMFV5npG8T5-9VpGLUH-23" edge="1">
          <mxGeometry width="160" relative="1" as="geometry">
            <mxPoint x="240" y="570" as="sourcePoint" />
            <mxPoint x="390" y="570" as="targetPoint" />
            <Array as="points" />
          </mxGeometry>
        </mxCell>
        <mxCell id="MmMFV5npG8T5-9VpGLUH-59" value="Use" style="endArrow=open;endSize=12;dashed=1;html=1;rounded=0;" parent="1" edge="1">
          <mxGeometry width="160" relative="1" as="geometry">
            <mxPoint x="390" y="450" as="sourcePoint" />
            <mxPoint x="260" y="450" as="targetPoint" />
          </mxGeometry>
        </mxCell>
        <mxCell id="MmMFV5npG8T5-9VpGLUH-60" value="Use" style="endArrow=open;endSize=12;dashed=1;html=1;rounded=0;entryX=1;entryY=0.5;entryDx=0;entryDy=0;exitX=0.701;exitY=1.004;exitDx=0;exitDy=0;exitPerimeter=0;" parent="1" source="MmMFV5npG8T5-9VpGLUH-23" target="MmMFV5npG8T5-9VpGLUH-21" edge="1">
          <mxGeometry width="160" relative="1" as="geometry">
            <mxPoint x="407" y="380" as="sourcePoint" />
            <mxPoint x="342.1" y="167.34000000000003" as="targetPoint" />
          </mxGeometry>
        </mxCell>
        <mxCell id="MmMFV5npG8T5-9VpGLUH-61" value="Use" style="endArrow=open;endSize=12;dashed=1;html=1;rounded=0;entryX=0.18;entryY=0.069;entryDx=0;entryDy=0;entryPerimeter=0;exitX=1.014;exitY=0.623;exitDx=0;exitDy=0;exitPerimeter=0;" parent="1" source="MmMFV5npG8T5-9VpGLUH-23" target="MmMFV5npG8T5-9VpGLUH-35" edge="1">
          <mxGeometry width="160" relative="1" as="geometry">
            <mxPoint x="540" y="720" as="sourcePoint" />
            <mxPoint x="510" y="950" as="targetPoint" />
          </mxGeometry>
        </mxCell>
        <mxCell id="MmMFV5npG8T5-9VpGLUH-62" value="Use" style="endArrow=open;endSize=12;dashed=1;html=1;rounded=0;exitX=0.067;exitY=0.024;exitDx=0;exitDy=0;exitPerimeter=0;entryX=0.992;entryY=0.689;entryDx=0;entryDy=0;entryPerimeter=0;" parent="1" source="MmMFV5npG8T5-9VpGLUH-35" target="MmMFV5npG8T5-9VpGLUH-23" edge="1">
          <mxGeometry width="160" relative="1" as="geometry">
            <mxPoint x="760" y="610" as="sourcePoint" />
            <mxPoint x="498" y="700" as="targetPoint" />
          </mxGeometry>
        </mxCell>
        <mxCell id="MmMFV5npG8T5-9VpGLUH-65" value="" style="ellipse;whiteSpace=wrap;html=1;align=center;aspect=fixed;fillColor=none;strokeColor=none;resizable=0;perimeter=centerPerimeter;rotatable=0;allowArrows=0;points=[];outlineConnect=1;" parent="1" vertex="1">
          <mxGeometry x="555" y="610" width="10" height="10" as="geometry" />
        </mxCell>
        <mxCell id="MmMFV5npG8T5-9VpGLUH-68" value="" style="ellipse;whiteSpace=wrap;html=1;align=center;aspect=fixed;fillColor=none;strokeColor=none;resizable=0;perimeter=centerPerimeter;rotatable=0;allowArrows=0;points=[];outlineConnect=1;" parent="1" vertex="1">
          <mxGeometry x="555" y="610" width="10" height="10" as="geometry" />
        </mxCell>
        <mxCell id="MmMFV5npG8T5-9VpGLUH-37" value="+ Sistemas Externos" style="verticalAlign=top;align=center;spacingTop=8;spacingLeft=2;spacingRight=12;shape=cube;size=10;direction=south;fontStyle=4;html=1;whiteSpace=wrap;fillColor=#f5f5f5;fontColor=#333333;strokeColor=#666666;" parent="1" vertex="1">
          <mxGeometry x="940" y="390" width="420" height="420" as="geometry" />
        </mxCell>
        <mxCell id="MmMFV5npG8T5-9VpGLUH-72" value="&lt;p style=&quot;margin:0px;margin-top:6px;text-align:center;&quot;&gt;Sistema Flow: APP&lt;/p&gt;&lt;div&gt;&lt;br&gt;&lt;/div&gt;&lt;hr size=&quot;1&quot; style=&quot;border-style:solid;&quot;&gt;&lt;p style=&quot;margin:0px;margin-left:8px;&quot;&gt;&lt;br&gt;&lt;/p&gt;" style="align=left;overflow=fill;html=1;dropTarget=0;whiteSpace=wrap;fillColor=#d5e8d4;strokeColor=#82b366;" parent="1" vertex="1">
          <mxGeometry x="990" y="445" width="300" height="75" as="geometry" />
        </mxCell>
        <mxCell id="MmMFV5npG8T5-9VpGLUH-73" value="" style="shape=component;jettyWidth=8;jettyHeight=4;" parent="MmMFV5npG8T5-9VpGLUH-72" vertex="1">
          <mxGeometry x="1" width="20" height="20" relative="1" as="geometry">
            <mxPoint x="-24" y="4" as="offset" />
          </mxGeometry>
        </mxCell>
        <mxCell id="MmMFV5npG8T5-9VpGLUH-76" value="" style="ellipse;whiteSpace=wrap;html=1;align=center;aspect=fixed;fillColor=none;strokeColor=none;resizable=0;perimeter=centerPerimeter;rotatable=0;allowArrows=0;points=[];outlineConnect=1;" parent="1" vertex="1">
          <mxGeometry x="555" y="650" width="10" height="10" as="geometry" />
        </mxCell>
        <mxCell id="MmMFV5npG8T5-9VpGLUH-79" value="" style="ellipse;whiteSpace=wrap;html=1;align=center;aspect=fixed;fillColor=none;strokeColor=none;resizable=0;perimeter=centerPerimeter;rotatable=0;allowArrows=0;points=[];outlineConnect=1;" parent="1" vertex="1">
          <mxGeometry x="555" y="650" width="10" height="10" as="geometry" />
        </mxCell>
        <mxCell id="MmMFV5npG8T5-9VpGLUH-85" value="" style="ellipse;whiteSpace=wrap;html=1;align=center;aspect=fixed;fillColor=none;strokeColor=none;resizable=0;perimeter=centerPerimeter;rotatable=0;allowArrows=0;points=[];outlineConnect=1;" parent="1" vertex="1">
          <mxGeometry x="555" y="650" width="10" height="10" as="geometry" />
        </mxCell>
        <mxCell id="MmMFV5npG8T5-9VpGLUH-88" value="" style="ellipse;whiteSpace=wrap;html=1;align=center;aspect=fixed;fillColor=none;strokeColor=none;resizable=0;perimeter=centerPerimeter;rotatable=0;allowArrows=0;points=[];outlineConnect=1;" parent="1" vertex="1">
          <mxGeometry x="555" y="650" width="10" height="10" as="geometry" />
        </mxCell>
        <mxCell id="MmMFV5npG8T5-9VpGLUH-91" value="" style="ellipse;whiteSpace=wrap;html=1;align=center;aspect=fixed;fillColor=none;strokeColor=none;resizable=0;perimeter=centerPerimeter;rotatable=0;allowArrows=0;points=[];outlineConnect=1;" parent="1" vertex="1">
          <mxGeometry x="675" y="650" width="10" height="10" as="geometry" />
        </mxCell>
        <mxCell id="MmMFV5npG8T5-9VpGLUH-94" value="" style="ellipse;whiteSpace=wrap;html=1;align=center;aspect=fixed;fillColor=none;strokeColor=none;resizable=0;perimeter=centerPerimeter;rotatable=0;allowArrows=0;points=[];outlineConnect=1;" parent="1" vertex="1">
          <mxGeometry x="675" y="650" width="10" height="10" as="geometry" />
        </mxCell>
        <mxCell id="c3lClaX7j1MCzwCienj9-1" value="&lt;p style=&quot;margin:0px;margin-top:6px;text-align:center;&quot;&gt;&lt;/p&gt;&lt;p style=&quot;margin: 6px 0px 0px; text-align: center;&quot;&gt;Servicio Gmail: APP&lt;/p&gt;&lt;hr style=&quot;border-style: solid;&quot; size=&quot;1&quot;&gt;&lt;p style=&quot;margin: 0px 0px 0px 8px;&quot;&gt;&lt;br&gt;&lt;/p&gt;" style="align=left;overflow=fill;html=1;dropTarget=0;whiteSpace=wrap;fillColor=#d5e8d4;strokeColor=#82b366;" vertex="1" parent="1">
          <mxGeometry x="990" y="535" width="300" height="60" as="geometry" />
        </mxCell>
        <mxCell id="c3lClaX7j1MCzwCienj9-2" value="" style="shape=component;jettyWidth=8;jettyHeight=4;" vertex="1" parent="c3lClaX7j1MCzwCienj9-1">
          <mxGeometry x="1" width="20" height="20" relative="1" as="geometry">
            <mxPoint x="-24" y="4" as="offset" />
          </mxGeometry>
        </mxCell>
        <mxCell id="c3lClaX7j1MCzwCienj9-3" value="&lt;p style=&quot;margin:0px;margin-top:6px;text-align:center;&quot;&gt;&lt;/p&gt;&lt;p style=&quot;margin: 6px 0px 0px; text-align: center;&quot;&gt;Servicio Push (Expo) : APP&lt;/p&gt;&lt;hr style=&quot;border-style: solid;&quot; size=&quot;1&quot;&gt;&lt;p style=&quot;margin: 0px 0px 0px 8px;&quot;&gt;&lt;br&gt;&lt;/p&gt;" style="align=left;overflow=fill;html=1;dropTarget=0;whiteSpace=wrap;fillColor=#d5e8d4;strokeColor=#82b366;" vertex="1" parent="1">
          <mxGeometry x="990" y="610" width="300" height="60" as="geometry" />
        </mxCell>
        <mxCell id="c3lClaX7j1MCzwCienj9-4" value="" style="shape=component;jettyWidth=8;jettyHeight=4;" vertex="1" parent="c3lClaX7j1MCzwCienj9-3">
          <mxGeometry x="1" width="20" height="20" relative="1" as="geometry">
            <mxPoint x="-24" y="4" as="offset" />
          </mxGeometry>
        </mxCell>
        <mxCell id="c3lClaX7j1MCzwCienj9-5" value="" style="rounded=0;orthogonalLoop=1;jettySize=auto;html=1;endArrow=halfCircle;endFill=0;endSize=6;strokeWidth=1;sketch=0;exitX=1;exitY=0.25;exitDx=0;exitDy=0;" edge="1" parent="1" source="MmMFV5npG8T5-9VpGLUH-28">
          <mxGeometry relative="1" as="geometry">
            <mxPoint x="750" y="740" as="sourcePoint" />
            <mxPoint x="830" y="483" as="targetPoint" />
          </mxGeometry>
        </mxCell>
        <mxCell id="c3lClaX7j1MCzwCienj9-6" value="" style="rounded=0;orthogonalLoop=1;jettySize=auto;html=1;endArrow=oval;endFill=0;sketch=0;sourcePerimeterSpacing=0;targetPerimeterSpacing=0;endSize=10;exitX=0;exitY=0.5;exitDx=0;exitDy=0;" edge="1" parent="1" source="MmMFV5npG8T5-9VpGLUH-72">
          <mxGeometry relative="1" as="geometry">
            <mxPoint x="710" y="780" as="sourcePoint" />
            <mxPoint x="830" y="483" as="targetPoint" />
          </mxGeometry>
        </mxCell>
        <mxCell id="c3lClaX7j1MCzwCienj9-7" value="" style="ellipse;whiteSpace=wrap;html=1;align=center;aspect=fixed;fillColor=none;strokeColor=none;resizable=0;perimeter=centerPerimeter;rotatable=0;allowArrows=0;points=[];outlineConnect=1;" vertex="1" parent="1">
          <mxGeometry x="475" y="650" width="10" height="10" as="geometry" />
        </mxCell>
        <mxCell id="c3lClaX7j1MCzwCienj9-8" value="" style="rounded=0;orthogonalLoop=1;jettySize=auto;html=1;endArrow=halfCircle;endFill=0;endSize=6;strokeWidth=1;sketch=0;exitX=0;exitY=0.75;exitDx=0;exitDy=0;" edge="1" parent="1" source="MmMFV5npG8T5-9VpGLUH-72">
          <mxGeometry relative="1" as="geometry">
            <mxPoint x="710" y="780" as="sourcePoint" />
            <mxPoint x="830" y="510" as="targetPoint" />
          </mxGeometry>
        </mxCell>
        <mxCell id="c3lClaX7j1MCzwCienj9-9" value="" style="rounded=0;orthogonalLoop=1;jettySize=auto;html=1;endArrow=oval;endFill=0;sketch=0;sourcePerimeterSpacing=0;targetPerimeterSpacing=0;endSize=10;exitX=1;exitY=0.76;exitDx=0;exitDy=0;exitPerimeter=0;" edge="1" parent="1" source="MmMFV5npG8T5-9VpGLUH-28">
          <mxGeometry relative="1" as="geometry">
            <mxPoint x="780" y="770" as="sourcePoint" />
            <mxPoint x="830" y="508" as="targetPoint" />
          </mxGeometry>
        </mxCell>
        <mxCell id="c3lClaX7j1MCzwCienj9-10" value="" style="ellipse;whiteSpace=wrap;html=1;align=center;aspect=fixed;fillColor=none;strokeColor=none;resizable=0;perimeter=centerPerimeter;rotatable=0;allowArrows=0;points=[];outlineConnect=1;" vertex="1" parent="1">
          <mxGeometry x="840" y="860" width="10" height="10" as="geometry" />
        </mxCell>
        <mxCell id="c3lClaX7j1MCzwCienj9-13" value="" style="ellipse;whiteSpace=wrap;html=1;align=center;aspect=fixed;fillColor=none;strokeColor=none;resizable=0;perimeter=centerPerimeter;rotatable=0;allowArrows=0;points=[];outlineConnect=1;" vertex="1" parent="1">
          <mxGeometry x="475" y="650" width="10" height="10" as="geometry" />
        </mxCell>
        <mxCell id="c3lClaX7j1MCzwCienj9-14" value="" style="rounded=0;orthogonalLoop=1;jettySize=auto;html=1;endArrow=halfCircle;endFill=0;endSize=6;strokeWidth=1;sketch=0;exitX=0;exitY=0.5;exitDx=0;exitDy=0;" edge="1" parent="1" source="c3lClaX7j1MCzwCienj9-1">
          <mxGeometry relative="1" as="geometry">
            <mxPoint x="750" y="810" as="sourcePoint" />
            <mxPoint x="820" y="570" as="targetPoint" />
          </mxGeometry>
        </mxCell>
        <mxCell id="c3lClaX7j1MCzwCienj9-17" value="" style="rounded=0;orthogonalLoop=1;jettySize=auto;html=1;endArrow=oval;endFill=0;sketch=0;sourcePerimeterSpacing=0;targetPerimeterSpacing=0;endSize=10;" edge="1" parent="1">
          <mxGeometry relative="1" as="geometry">
            <mxPoint x="720" y="570" as="sourcePoint" />
            <mxPoint x="820" y="570" as="targetPoint" />
          </mxGeometry>
        </mxCell>
        <mxCell id="c3lClaX7j1MCzwCienj9-16" value="" style="ellipse;whiteSpace=wrap;html=1;align=center;aspect=fixed;fillColor=none;strokeColor=none;resizable=0;perimeter=centerPerimeter;rotatable=0;allowArrows=0;points=[];outlineConnect=1;" vertex="1" parent="1">
          <mxGeometry x="785" y="575" width="10" height="10" as="geometry" />
        </mxCell>
        <mxCell id="c3lClaX7j1MCzwCienj9-20" value="" style="ellipse;whiteSpace=wrap;html=1;align=center;aspect=fixed;fillColor=none;strokeColor=none;resizable=0;perimeter=centerPerimeter;rotatable=0;allowArrows=0;points=[];outlineConnect=1;" vertex="1" parent="1">
          <mxGeometry x="900" y="880" width="10" height="10" as="geometry" />
        </mxCell>
        <mxCell id="c3lClaX7j1MCzwCienj9-21" value="" style="rounded=0;orthogonalLoop=1;jettySize=auto;html=1;endArrow=halfCircle;endFill=0;endSize=6;strokeWidth=1;sketch=0;" edge="1" parent="1" source="c3lClaX7j1MCzwCienj9-3">
          <mxGeometry relative="1" as="geometry">
            <mxPoint x="720" y="800" as="sourcePoint" />
            <mxPoint x="830" y="650" as="targetPoint" />
          </mxGeometry>
        </mxCell>
        <mxCell id="c3lClaX7j1MCzwCienj9-22" value="" style="rounded=0;orthogonalLoop=1;jettySize=auto;html=1;endArrow=oval;endFill=0;sketch=0;sourcePerimeterSpacing=0;targetPerimeterSpacing=0;endSize=10;exitX=1;exitY=0.75;exitDx=0;exitDy=0;" edge="1" parent="1" source="MmMFV5npG8T5-9VpGLUH-32">
          <mxGeometry relative="1" as="geometry">
            <mxPoint x="790" y="750" as="sourcePoint" />
            <mxPoint x="830" y="650" as="targetPoint" />
          </mxGeometry>
        </mxCell>
        <mxCell id="c3lClaX7j1MCzwCienj9-23" value="" style="ellipse;whiteSpace=wrap;html=1;align=center;aspect=fixed;fillColor=none;strokeColor=none;resizable=0;perimeter=centerPerimeter;rotatable=0;allowArrows=0;points=[];outlineConnect=1;" vertex="1" parent="1">
          <mxGeometry x="817" y="750" width="10" height="10" as="geometry" />
        </mxCell>
      </root>
    </mxGraphModel>
  </diagram>
</mxfile>
